<?xml version="1.0" encoding="UTF-8" standalone="no"?>
<!-- Created with Inkscape (http://www.inkscape.org/) -->

<svg
   width="48.666836"
   height="35.253757"
   viewBox="0 0 48.666836 35.253757"
   version="1.1"
   id="svg5"
   inkscape:version="1.1.2 (0a00cf5339, 2022-02-04)"
   sodipodi:docname="logo.svg"
   xmlns:inkscape="http://www.inkscape.org/namespaces/inkscape"
   xmlns:sodipodi="http://sodipodi.sourceforge.net/DTD/sodipodi-0.dtd"
   xmlns="http://www.w3.org/2000/svg"
   xmlns:svg="http://www.w3.org/2000/svg">
  <sodipodi:namedview
     id="namedview7"
     pagecolor="#ffffff"
     bordercolor="#666666"
     borderopacity="1.0"
     inkscape:pageshadow="2"
     inkscape:pageopacity="0.0"
     inkscape:pagecheckerboard="0"
     inkscape:document-units="mm"
     showgrid="false"
     units="px"
     width="400px"
     fit-margin-top="0"
     fit-margin-left="0"
     fit-margin-right="0"
     fit-margin-bottom="0"
     inkscape:zoom="7.8385905"
     inkscape:cx="13.905561"
     inkscape:cy="36.167217"
     inkscape:window-width="2364"
     inkscape:window-height="2088"
     inkscape:window-x="1080"
     inkscape:window-y="38"
     inkscape:window-maximized="0"
     inkscape:current-layer="layer1" />
  <defs
     id="defs2" />
  <g
     inkscape:label="Layer 1"
     inkscape:groupmode="layer"
     id="layer1"
     transform="translate(-32.180001,-17.398706)">
    <g
       id="g12824"
       transform="matrix(0.07674993,0,0,0.07194961,37.467666,17.398706)"
       style="fill:#ac9393;fill-opacity:1">
      <g
         id="g12763"
         style="fill:#ac9393;fill-opacity:1">
	<g
   id="g12761"
   style="fill:#ac9393;fill-opacity:1">
		<g
   id="g12759"
   style="fill:#ac9393;fill-opacity:1">
			<path
   d="m 184.231,239.9 c 43.9,23.3 64.5,75.4 49.8,123.3 -2.7,8.6 -5.1,17.5 -7,26.4 -7.8,40 2.7,90.2 46.7,99.1 22.2,4.7 44.3,-3.9 59.9,-20.2 46.5,-50.5 32.3,-202.6 31.9,-240.7 0,-16.7 -0.4,-33.8 -7,-49.4 -14.8,-35 -56.4,-49 -93.3,-58.7 -60.6,-22.1 -98.8,5.8 -111.6,26.4 -12.8,20.6 -22.1,66.4 30.6,93.8 z"
   id="path12747"
   style="fill:#ac9393;fill-opacity:1" />

			<ellipse
   cx="141.83099"
   cy="44.299999"
   rx="31.5"
   ry="44.299999"
   id="ellipse12749"
   style="fill:#ac9393;fill-opacity:1" />

			<ellipse
   cx="214.631"
   cy="51.700001"
   rx="18.700001"
   ry="26.4"
   id="ellipse12751"
   style="fill:#ac9393;fill-opacity:1" />

			<ellipse
   cx="272.931"
   cy="68"
   rx="16.700001"
   ry="23.299999"
   id="ellipse12753"
   style="fill:#ac9393;fill-opacity:1" />

			<ellipse
   cx="326.13101"
   cy="81.699997"
   rx="14.8"
   ry="20.6"
   id="ellipse12755"
   style="fill:#ac9393;fill-opacity:1" />

			<ellipse
   transform="matrix(-0.2014,0.9795,-0.9795,-0.2014,546.9331,-227.4809)"
   cx="366.20001"
   cy="109.218"
   rx="18.299999"
   ry="13.2"
   id="ellipse12757"
   style="fill:#ac9393;fill-opacity:1" />

		</g>

	</g>

</g>
      <g
         id="g12765"
         style="fill:#ac9393;fill-opacity:1">
</g>
      <g
         id="g12767"
         style="fill:#ac9393;fill-opacity:1">
</g>
      <g
         id="g12769"
         style="fill:#ac9393;fill-opacity:1">
</g>
      <g
         id="g12771"
         style="fill:#ac9393;fill-opacity:1">
</g>
      <g
         id="g12773"
         style="fill:#ac9393;fill-opacity:1">
</g>
      <g
         id="g12775"
         style="fill:#ac9393;fill-opacity:1">
</g>
      <g
         id="g12777"
         style="fill:#ac9393;fill-opacity:1">
</g>
      <g
         id="g12779"
         style="fill:#ac9393;fill-opacity:1">
</g>
      <g
         id="g12781"
         style="fill:#ac9393;fill-opacity:1">
</g>
      <g
         id="g12783"
         style="fill:#ac9393;fill-opacity:1">
</g>
      <g
         id="g12785"
         style="fill:#ac9393;fill-opacity:1">
</g>
      <g
         id="g12787"
         style="fill:#ac9393;fill-opacity:1">
</g>
      <g
         id="g12789"
         style="fill:#ac9393;fill-opacity:1">
</g>
      <g
         id="g12791"
         style="fill:#ac9393;fill-opacity:1">
</g>
      <g
         id="g12793"
         style="fill:#ac9393;fill-opacity:1">
</g>
    </g>
    <g
       aria-label="ONLINE"
       id="text10880"
       style="font-weight:bold;font-size:11.8895px;line-height:1.25;-inkscape-font-specification:'sans-serif, Bold';fill:#483737;stroke-width:0.297238">
      <path
         d="m 36.638564,33.944373 q -1.021754,0 -1.58488,0.754705 -0.563125,0.754704 -0.563125,2.124783 0,1.364274 0.563125,2.118979 0.563126,0.754704 1.58488,0.754704 1.027559,0 1.590685,-0.754704 0.563126,-0.754705 0.563126,-2.118979 0,-1.370079 -0.563126,-2.124783 -0.563126,-0.754705 -1.590685,-0.754705 z m 0,-1.619712 q 2.089951,0 3.274257,1.195917 1.184305,1.195916 1.184305,3.303283 0,2.101562 -1.184305,3.297479 -1.184306,1.195916 -3.274257,1.195916 -2.084146,0 -3.274257,-1.195916 -1.184306,-1.195917 -1.184306,-3.297479 0,-2.107367 1.184306,-3.303283 1.190111,-1.195917 3.274257,-1.195917 z"
         id="path28114" />
      <path
         d="m 42.786503,32.481407 h 2.496331 l 3.152343,5.94475 v -5.94475 h 2.118978 v 8.667492 h -2.49633 l -3.152343,-5.94475 v 5.94475 h -2.118979 z"
         id="path28116" />
      <path
         d="m 52.736992,32.481407 h 2.235086 v 6.978115 h 3.924464 v 1.689377 h -6.15955 z"
         id="path28118" />
      <path
         d="m 60.313064,32.481407 h 2.235087 v 8.667492 h -2.235087 z"
         id="path28120" />
      <path
         d="m 64.736793,32.481407 h 2.496331 l 3.152343,5.94475 v -5.94475 h 2.118978 v 8.667492 h -2.496331 l -3.152343,-5.94475 v 5.94475 h -2.118978 z"
         id="path28122" />
      <path
         d="m 74.687286,32.481407 h 6.031831 v 1.689378 h -3.796744 v 1.613906 h 3.570333 v 1.689377 h -3.570333 v 1.985454 h 3.924463 v 1.689377 h -6.15955 z"
         id="path28124" />
    </g>
    <g
       aria-label="my"
       transform="scale(0.98522788,1.0149936)"
       id="text27014"
       style="font-style:italic;font-size:9.27154px;line-height:1.25;font-family:FreeSerif;-inkscape-font-specification:'FreeSerif, Italic';stroke-width:0.231789">
      <path
         d="m 39.003005,29.793912 q 0,0.148344 0.12053,0.148344 0.12053,0 0.259603,-0.129801 0.139073,-0.139073 0.528478,-0.60265 l 0.139073,0.111258 q -0.36159,0.500663 -0.686094,0.778809 -0.315232,0.278147 -0.695365,0.278147 -0.370862,0 -0.370862,-0.426491 0,-0.12053 0.12053,-0.611922 l 0.537749,-2.132454 q 0.0649,-0.231788 0.0649,-0.324504 0,-0.07417 -0.05563,-0.129801 -0.05563,-0.0649 -0.129802,-0.0649 -0.203973,0 -0.528477,0.287418 -0.315233,0.278146 -0.65828,0.750994 -0.352318,0.491392 -0.556292,0.992055 -0.194702,0.491392 -0.472849,1.576162 h -0.695365 q 0.880796,-3.272854 0.880796,-3.374841 0,-0.231788 -0.185431,-0.231788 -0.24106,0 -0.621193,0.36159 -0.380133,0.352318 -0.769537,0.945697 -0.24106,0.36159 -0.407948,0.788081 -0.157616,0.417219 -0.491392,1.511261 h -0.695365 q 0.101987,-0.398676 0.36159,-1.32583 0.547021,-1.928481 0.547021,-2.123183 0,-0.203974 -0.36159,-0.203974 h -0.231789 v -0.148345 q 0.908611,-0.166887 1.483446,-0.287417 l 0.02782,0.01854 -0.537749,1.937752 q 1.242386,-1.956295 2.067553,-1.956295 0.231789,0 0.380133,0.157616 0.148345,0.157616 0.148345,0.398676 0,0.278146 -0.370862,1.409274 0.72318,-1.140399 1.233115,-1.576162 0.445034,-0.389404 0.825167,-0.389404 0.231789,0 0.389405,0.166887 0.157616,0.166888 0.157616,0.41722 0,0.148344 -0.02781,0.259603 l -0.630464,2.327156 q -0.09272,0.370862 -0.09272,0.41722 z"
         id="path28145" />
      <path
         d="m 40.347374,26.428343 q 1.075498,-0.203974 1.32583,-0.222517 0.101987,0 0.398676,0.871524 0.296689,0.862254 0.398676,1.474175 l 0.185431,1.075499 q 1.131128,-1.872851 1.131128,-2.401329 0,-0.166888 -0.250332,-0.324504 -0.250331,-0.157616 -0.250331,-0.352318 0,-0.148345 0.101987,-0.24106 0.101987,-0.101987 0.259603,-0.101987 0.213245,0 0.36159,0.157616 0.148344,0.148345 0.148344,0.352318 0,0.584107 -0.686094,1.919209 -0.686093,1.32583 -1.594704,2.447687 -0.89934,1.121856 -1.418546,1.121856 -0.203974,0 -0.343047,-0.12053 -0.129801,-0.111259 -0.129801,-0.287418 0,-0.148344 0.101986,-0.259603 0.101987,-0.101987 0.259604,-0.101987 0.12053,0 0.315232,0.129802 0.194702,0.129801 0.250332,0.129801 0.222516,0 0.704637,-0.60265 0.491391,-0.60265 0.491391,-0.871525 0,-0.12053 -0.129801,-0.760266 -0.129802,-0.639736 -0.250332,-1.08477 -0.315232,-1.196029 -0.509935,-1.511261 -0.18543,-0.315232 -0.584107,-0.315232 -0.129801,0 -0.287417,0.03709 z"
         id="path28147" />
    </g>
  </g>
</svg>
